<?xml version="1.0" encoding="UTF-8" standalone="no"?>
<!DOCTYPE svg PUBLIC "-//W3C//DTD SVG 1.1//EN" "http://www.w3.org/Graphics/SVG/1.1/DTD/svg11.dtd">
<!-- Generiert durch Microsoft Visio, SVG Export packagestructure.svg Page-1 -->
<svg xmlns="http://www.w3.org/2000/svg" xmlns:xlink="http://www.w3.org/1999/xlink" xmlns:ev="http://www.w3.org/2001/xml-events"
		xmlns:v="http://schemas.microsoft.com/visio/2003/SVGExtensions/" width="4.6043in" height="5.18709in"
		viewBox="0 0 331.51 373.471" xml:space="preserve" color-interpolation-filters="sRGB" class="st6">
	<v:documentProperties v:langID="1031" v:metric="true" v:viewMarkup="false">
		<v:userDefs>
			<v:ud v:nameU="msvSubprocessMaster" v:prompt="" v:val="VT4(Box)"/>
			<v:ud v:nameU="msvNoAutoConnect" v:val="VT0(1):26"/>
		</v:userDefs>
	</v:documentProperties>

	<style type="text/css">
	<![CDATA[
		.st1 {stroke:#5692c9;stroke-linecap:round;stroke-linejoin:round;stroke-width:1.5}
		.st2 {fill:#4a80b1;stroke:none;stroke-linecap:butt;stroke-width:0.75}
		.st3 {fill:#31587b;font-family:Calibri;font-size:1.00001em}
		.st4 {fill:#32587b;font-size:1em}
		.st5 {fill:#32587b;font-family:Calibri;font-size:1.00001em}
		.st6 {fill:none;fill-rule:evenodd;font-size:12px;overflow:visible;stroke-linecap:square;stroke-miterlimit:3}
	]]>
	</style>

	<g v:mID="0" v:index="1" v:groupContext="foregroundPage">
		<v:userDefs>
			<v:ud v:nameU="msvThemeOrder" v:val="VT0(0):26"/>
		</v:userDefs>
		<title>Zeichenblatt-1</title>
		<v:pageProperties v:drawingScale="0.0393701" v:pageScale="0.0393701" v:drawingUnits="24" v:shadowOffsetX="8.50394"
				v:shadowOffsetY="-8.50394"/>
		<v:layer v:name="Verbinder" v:index="0"/>
		<v:layer v:name="Container" v:index="1"/>
		<g id="shape9-1" v:mID="9" v:groupContext="shape" v:layerMember="0" transform="translate(38.5512,-320.296)">
			<title>Dynamischer Verbinder</title>
			<path d="M0 373.47 L0 410.39 L57.67 410.39" class="st1"/>
		</g>
		<g id="shape11-4" v:mID="11" v:groupContext="shape" v:layerMember="0" transform="translate(118.977,-264.742)">
			<title>Dynamischer Verbinder.11</title>
			<path d="M0 373.47 L0 403.02 L33.94 403.02" class="st1"/>
		</g>
		<g id="shape12-7" v:mID="12" v:groupContext="shape" v:layerMember="0" transform="translate(38.5512,-320.296)">
			<title>Dynamischer Verbinder.12</title>
			<path d="M0 373.47 L0 547.35 L57.67 547.35" class="st1"/>
		</g>
		<g id="shape13-10" v:mID="13" v:groupContext="shape" v:layerMember="0" transform="translate(38.5512,-320.296)">
			<title>Dynamischer Verbinder.13</title>
			<path d="M0 373.47 L0 599.37 L57.67 599.37" class="st1"/>
		</g>
		<g id="shape2-13" v:mID="2" v:groupContext="shape" transform="translate(18.75,-320.289)">
			<title>Öffnen</title>
			<desc>&#60;packagename&#62;.&#60;version&#62;</desc>
			<v:userDefs>
				<v:ud v:nameU="msvShapeCategories" v:prompt="" v:val="VT4(Icon)"/>
				<v:ud v:nameU="visVersion" v:prompt="" v:val="VT0(15):26"/>
			</v:userDefs>
			<v:textBlock v:margins="rect(2,2,2,2)" v:tabSpace="42.5197"/>
			<v:textRect cx="113.944" cy="356.255" width="136.87" height="34.4313"/>
			<path d="M43.47 350.37 L37.34 350.37 L37.34 347.58 A2.84933 2.89492 -180 0 0 34.5 344.69 L22.73 344.69 A6.5216 6.62594
						 0 0 1 18.16 342.4 L17.36 341.33 A6.5216 6.62594 -180 0 0 12.79 339.04 L2.85 339.04 A2.84933 2.89492 -180
						 0 0 0 341.93 L0 371.3 L0.03 371.25 A1.84244 1.87192 -180 0 0 1.99 373.46 L33.65 373.46 A4.51314 4.58535
						 -180 0 0 37.52 370.58 L45.28 353.26 A1.92628 1.9571 -180 0 0 43.47 350.37 ZM2.85 341.93 L12.79 341.93 A3.84227
						 3.90375 0 0 1 15.1 343.09 L15.91 344.16 A9.27985 9.42833 -180 0 0 22.73 347.58 L34.5 347.58 L34.5 350.37
						 L11.82 350.37 A4.50777 4.5799 -180 0 0 7.94 353.26 L2.85 364.63 L2.85 341.94 L2.92 341.93 L2.85 341.93 ZM34.86
						 369.59 A1.78378 1.81232 0 0 1 33.65 370.58 L3.21 370.58 A671.213 681.952 0 0 1 10.61 354.25 A1.78611 1.81469
						 0 0 1 11.82 353.26 L42.26 353.26 A671.39 682.132 0 0 1 34.86 369.59 Z" class="st2"/>
			<text x="47.51" y="359.86" class="st3" v:langID="1031"><v:paragraph/><v:tabList/>&#60;<tspan class="st4">packagename</tspan>&#62;.&#60;version&#62;</text>		</g>
		<g id="shape1-17" v:mID="1" v:groupContext="shape" transform="translate(96.2208,-71.6203)">
			<title>Dokument</title>
			<desc>readme.md</desc>
			<v:userDefs>
				<v:ud v:nameU="msvShapeCategories" v:prompt="" v:val="VT4(Icon)"/>
				<v:ud v:nameU="visVersion" v:prompt="" v:val="VT0(15):26"/>
			</v:userDefs>
			<v:textBlock v:margins="rect(2,2,2,2)" v:tabSpace="42.5197"/>
			<v:textRect cx="69.27" cy="350.715" width="63.41" height="45.5115"/>
			<path d="M7.22 363.52 L7.22 362.09 L30.34 362.09 L30.34 363.52 L7.22 363.52 ZM7.22 357.83 L7.22 356.4 L30.34 356.4 L30.34
						 357.83 L7.22 357.83 ZM7.22 352.14 L7.22 350.71 L30.34 350.71 L30.34 352.14 L7.22 352.14 ZM7.22 346.45 L7.22
						 345.03 L30.34 345.03 L30.34 346.45 L7.22 346.45 ZM7.22 340.76 L7.22 339.34 L21.73 339.34 L21.73 340.76 L7.22
						 340.76 ZM34.68 370.63 L34.68 339.34 L26.01 339.34 L26.01 330.8 L2.89 330.8 L2.89 370.63 L34.68 370.63 ZM34.32
						 337.91 L27.45 331.16 L27.45 337.91 L34.32 337.91 ZM28.54 327.96 L37.57 336.85 L37.57 373.47 L0 373.47 L0
						 327.96 L28.54 327.96 Z" class="st2"/>
			<text x="39.57" y="354.32" class="st5" v:langID="1031"><v:paragraph/><v:tabList/>readme.md</text>		</g>
		<g id="shape3-20" v:mID="3" v:groupContext="shape" transform="translate(96.2208,-264.736)">
			<title>Öffnen.3</title>
			<desc>lib</desc>
			<v:userDefs>
				<v:ud v:nameU="msvShapeCategories" v:prompt="" v:val="VT4(Icon)"/>
				<v:ud v:nameU="visVersion" v:prompt="" v:val="VT0(15):26"/>
			</v:userDefs>
			<v:textBlock v:margins="rect(2,2,2,2)" v:tabSpace="42.5197"/>
			<v:textRect cx="54.7761" cy="356.255" width="18.53" height="34.4313"/>
			<path d="M43.47 350.37 L37.34 350.37 L37.34 347.58 A2.84933 2.89492 -180 0 0 34.5 344.69 L22.73 344.69 A6.5216 6.62594
						 0 0 1 18.16 342.4 L17.36 341.33 A6.5216 6.62594 -180 0 0 12.79 339.04 L2.85 339.04 A2.84933 2.89492 -180
						 0 0 0 341.93 L0 371.3 L0.03 371.25 A1.84244 1.87192 -180 0 0 1.99 373.46 L33.65 373.46 A4.51314 4.58535
						 -180 0 0 37.52 370.58 L45.28 353.26 A1.92628 1.9571 -180 0 0 43.47 350.37 ZM2.85 341.93 L12.79 341.93 A3.84227
						 3.90375 0 0 1 15.1 343.09 L15.91 344.16 A9.27985 9.42833 -180 0 0 22.73 347.58 L34.5 347.58 L34.5 350.37
						 L11.82 350.37 A4.50777 4.5799 -180 0 0 7.94 353.26 L2.85 364.63 L2.85 341.94 L2.92 341.93 L2.85 341.93 ZM34.86
						 369.59 A1.78378 1.81232 0 0 1 33.65 370.58 L3.21 370.58 A671.213 681.952 0 0 1 10.61 354.25 A1.78611 1.81469
						 0 0 1 11.82 353.26 L42.26 353.26 A671.39 682.132 0 0 1 34.86 369.59 Z" class="st2"/>
			<text x="47.51" y="359.86" class="st5" v:langID="1031"><v:paragraph/><v:tabList/>lib</text>		</g>
		<g id="shape4-23" v:mID="4" v:groupContext="shape" transform="translate(152.914,-217.964)">
			<title>Öffnen.4</title>
			<desc>runtimes</desc>
			<v:userDefs>
				<v:ud v:nameU="msvShapeCategories" v:prompt="" v:val="VT4(Icon)"/>
				<v:ud v:nameU="visVersion" v:prompt="" v:val="VT0(15):26"/>
			</v:userDefs>
			<v:textBlock v:margins="rect(2,2,2,2)" v:tabSpace="42.5197"/>
			<v:textRect cx="70.7782" cy="356.255" width="50.54" height="34.4313"/>
			<path d="M43.47 350.37 L37.34 350.37 L37.34 347.58 A2.84933 2.89492 -180 0 0 34.5 344.69 L22.73 344.69 A6.5216 6.62594
						 0 0 1 18.16 342.4 L17.36 341.33 A6.5216 6.62594 -180 0 0 12.79 339.04 L2.85 339.04 A2.84933 2.89492 -180
						 0 0 0 341.93 L0 371.3 L0.03 371.25 A1.84244 1.87192 -180 0 0 1.99 373.46 L33.65 373.46 A4.51314 4.58535
						 -180 0 0 37.52 370.58 L45.28 353.26 A1.92628 1.9571 -180 0 0 43.47 350.37 ZM2.85 341.93 L12.79 341.93 A3.84227
						 3.90375 0 0 1 15.1 343.09 L15.91 344.16 A9.27985 9.42833 -180 0 0 22.73 347.58 L34.5 347.58 L34.5 350.37
						 L11.82 350.37 A4.50777 4.5799 -180 0 0 7.94 353.26 L2.85 364.63 L2.85 341.94 L2.92 341.93 L2.85 341.93 ZM34.86
						 369.59 A1.78378 1.81232 0 0 1 33.65 370.58 L3.21 370.58 A671.213 681.952 0 0 1 10.61 354.25 A1.78611 1.81469
						 0 0 1 11.82 353.26 L42.26 353.26 A671.39 682.132 0 0 1 34.86 369.59 Z" class="st2"/>
			<text x="47.51" y="359.86" class="st5" v:langID="1031"><v:paragraph/><v:tabList/>runtimes</text>		</g>
		<g id="shape5-26" v:mID="5" v:groupContext="shape" transform="translate(96.2208,-129.472)">
			<title>Öffnen.5</title>
			<desc>licences</desc>
			<v:userDefs>
				<v:ud v:nameU="msvShapeCategories" v:prompt="" v:val="VT4(Icon)"/>
				<v:ud v:nameU="visVersion" v:prompt="" v:val="VT0(15):26"/>
			</v:userDefs>
			<v:textBlock v:margins="rect(2,2,2,2)" v:tabSpace="42.5197"/>
			<v:textRect cx="68.1678" cy="356.255" width="45.32" height="34.4313"/>
			<path d="M43.47 350.37 L37.34 350.37 L37.34 347.58 A2.84933 2.89492 -180 0 0 34.5 344.69 L22.73 344.69 A6.5216 6.62594
						 0 0 1 18.16 342.4 L17.36 341.33 A6.5216 6.62594 -180 0 0 12.79 339.04 L2.85 339.04 A2.84933 2.89492 -180
						 0 0 0 341.93 L0 371.3 L0.03 371.25 A1.84244 1.87192 -180 0 0 1.99 373.46 L33.65 373.46 A4.51314 4.58535
						 -180 0 0 37.52 370.58 L45.28 353.26 A1.92628 1.9571 -180 0 0 43.47 350.37 ZM2.85 341.93 L12.79 341.93 A3.84227
						 3.90375 0 0 1 15.1 343.09 L15.91 344.16 A9.27985 9.42833 -180 0 0 22.73 347.58 L34.5 347.58 L34.5 350.37
						 L11.82 350.37 A4.50777 4.5799 -180 0 0 7.94 353.26 L2.85 364.63 L2.85 341.94 L2.92 341.93 L2.85 341.93 ZM34.86
						 369.59 A1.78378 1.81232 0 0 1 33.65 370.58 L3.21 370.58 A671.213 681.952 0 0 1 10.61 354.25 A1.78611 1.81469
						 0 0 1 11.82 353.26 L42.26 353.26 A671.39 682.132 0 0 1 34.86 369.59 Z" class="st2"/>
			<text x="47.51" y="359.86" class="st3" v:langID="1031"><v:paragraph/><v:tabList/>licences</text>		</g>
		<g id="shape14-29" v:mID="14" v:groupContext="shape" v:layerMember="0" transform="translate(38.5512,-320.296)">
			<title>Dynamischer Verbinder.14</title>
			<path d="M0 373.47 L0 652.24 L57.67 652.24" class="st1"/>
		</g>
		<g id="shape15-32" v:mID="15" v:groupContext="shape" transform="translate(96.2208,-18.75)">
			<title>Dokument.15</title>
			<desc>&#60;packagename&#62;.spec</desc>
			<v:userDefs>
				<v:ud v:nameU="msvShapeCategories" v:prompt="" v:val="VT4(Icon)"/>
				<v:ud v:nameU="visVersion" v:prompt="" v:val="VT0(15):26"/>
			</v:userDefs>
			<v:textBlock v:margins="rect(2,2,2,2)" v:tabSpace="42.5197"/>
			<v:textRect cx="93.2202" cy="350.715" width="111.31" height="45.5115"/>
			<path d="M7.22 363.52 L7.22 362.09 L30.34 362.09 L30.34 363.52 L7.22 363.52 ZM7.22 357.83 L7.22 356.4 L30.34 356.4 L30.34
						 357.83 L7.22 357.83 ZM7.22 352.14 L7.22 350.71 L30.34 350.71 L30.34 352.14 L7.22 352.14 ZM7.22 346.45 L7.22
						 345.03 L30.34 345.03 L30.34 346.45 L7.22 346.45 ZM7.22 340.76 L7.22 339.34 L21.73 339.34 L21.73 340.76 L7.22
						 340.76 ZM34.68 370.63 L34.68 339.34 L26.01 339.34 L26.01 330.8 L2.89 330.8 L2.89 370.63 L34.68 370.63 ZM34.32
						 337.91 L27.45 331.16 L27.45 337.91 L34.32 337.91 ZM28.54 327.96 L37.57 336.85 L37.57 373.47 L0 373.47 L0
						 327.96 L28.54 327.96 Z" class="st2"/>
			<text x="39.57" y="354.32" class="st5" v:langID="1031"><v:paragraph/><v:tabList/>&#60;packagename&#62;.spec</text>		</g>
		<g id="shape18-35" v:mID="18" v:groupContext="shape" v:layerMember="0" transform="translate(175.669,-217.97)">
			<title>Dynamischer Verbinder.18</title>
			<path d="M0 373.47 L0 403.02 L29.85 403.02" class="st1"/>
		</g>
		<g id="shape19-38" v:mID="19" v:groupContext="shape" transform="translate(205.512,-171.193)">
			<title>Öffnen.19</title>
			<desc>&#60;rid&#62;</desc>
			<v:userDefs>
				<v:ud v:nameU="msvShapeCategories" v:prompt="" v:val="VT4(Icon)"/>
				<v:ud v:nameU="visVersion" v:prompt="" v:val="VT0(15):26"/>
			</v:userDefs>
			<v:textBlock v:margins="rect(2,2,2,2)" v:tabSpace="42.5197"/>
			<v:textRect cx="61.4674" cy="356.255" width="31.92" height="34.4313"/>
			<path d="M43.47 350.37 L37.34 350.37 L37.34 347.58 A2.84933 2.89492 -180 0 0 34.5 344.69 L22.73 344.69 A6.5216 6.62594
						 0 0 1 18.16 342.4 L17.36 341.33 A6.5216 6.62594 -180 0 0 12.79 339.04 L2.85 339.04 A2.84933 2.89492 -180
						 0 0 0 341.93 L0 371.3 L0.03 371.25 A1.84244 1.87192 -180 0 0 1.99 373.46 L33.65 373.46 A4.51314 4.58535
						 -180 0 0 37.52 370.58 L45.28 353.26 A1.92628 1.9571 -180 0 0 43.47 350.37 ZM2.85 341.93 L12.79 341.93 A3.84227
						 3.90375 0 0 1 15.1 343.09 L15.91 344.16 A9.27985 9.42833 -180 0 0 22.73 347.58 L34.5 347.58 L34.5 350.37
						 L11.82 350.37 A4.50777 4.5799 -180 0 0 7.94 353.26 L2.85 364.63 L2.85 341.94 L2.92 341.93 L2.85 341.93 ZM34.86
						 369.59 A1.78378 1.81232 0 0 1 33.65 370.58 L3.21 370.58 A671.213 681.952 0 0 1 10.61 354.25 A1.78611 1.81469
						 0 0 1 11.82 353.26 L42.26 353.26 A671.39 682.132 0 0 1 34.86 369.59 Z" class="st2"/>
			<text x="47.51" y="359.86" class="st5" v:langID="1031"><v:paragraph/><v:tabList/>&#60;rid&#62;</text>		</g>
	</g>
</svg>
