<?xml version="1.0" encoding="UTF-8" standalone="no"?>
<!DOCTYPE svg PUBLIC "-//W3C//DTD SVG 1.1//EN" "http://www.w3.org/Graphics/SVG/1.1/DTD/svg11.dtd">
<!-- Generiert durch Microsoft Visio, SVG Export taskstate.svg Page-1 -->
<svg xmlns="http://www.w3.org/2000/svg" xmlns:xlink="http://www.w3.org/1999/xlink" xmlns:ev="http://www.w3.org/2001/xml-events"
		xmlns:v="http://schemas.microsoft.com/visio/2003/SVGExtensions/" width="3.14474in" height="2.86915in"
		viewBox="0 0 226.421 206.579" xml:space="preserve" color-interpolation-filters="sRGB" class="st6">
	<v:documentProperties v:langID="1031" v:metric="true" v:viewMarkup="false">
		<v:userDefs>
			<v:ud v:nameU="msvSubprocessMaster" v:prompt="" v:val="VT4(Box)"/>
			<v:ud v:nameU="msvNoAutoConnect" v:val="VT0(1):26"/>
		</v:userDefs>
	</v:documentProperties>

	<style type="text/css">
	<![CDATA[
		.st1 {fill:#5b9bd5;stroke:#ffffff;stroke-linecap:round;stroke-linejoin:round;stroke-width:0.5}
		.st2 {fill:#ffffff;font-family:Calibri;font-size:0.833336em}
		.st3 {font-size:1em;text-decoration:underline}
		.st4 {marker-end:url(#mrkr4-20);stroke:#5692c9;stroke-linecap:round;stroke-linejoin:round;stroke-width:0.5}
		.st5 {fill:#5692c9;fill-opacity:1;stroke:#5692c9;stroke-opacity:1;stroke-width:0.16556291390728}
		.st6 {fill:none;fill-rule:evenodd;font-size:12px;overflow:visible;stroke-linecap:square;stroke-miterlimit:3}
	]]>
	</style>

	<defs id="Markers">
		<g id="lend4">
			<path d="M 2 1 L 0 0 L 2 -1 L 2 1 " style="stroke:none"/>
		</g>
		<marker id="mrkr4-20" class="st5" v:arrowType="4" v:arrowSize="2" v:setback="11.36" refX="-11.36" orient="auto"
				markerUnits="strokeWidth" overflow="visible">
			<use xlink:href="#lend4" transform="scale(-6.04,-6.04) "/>
		</marker>
	</defs>
	<g v:mID="0" v:index="1" v:groupContext="foregroundPage">
		<v:userDefs>
			<v:ud v:nameU="msvThemeOrder" v:val="VT0(0):26"/>
		</v:userDefs>
		<title>Zeichenblatt-1</title>
		<v:pageProperties v:drawingScale="0.0393701" v:pageScale="0.0393701" v:drawingUnits="24" v:shadowOffsetX="8.50394"
				v:shadowOffsetY="-8.50394"/>
		<v:layer v:name="Verbinder" v:index="0"/>
		<g id="shape1-1" v:mID="1" v:groupContext="shape" transform="translate(56.2342,-153.441)">
			<title>Ellipse</title>
			<desc>Created</desc>
			<v:userDefs>
				<v:ud v:nameU="visVersion" v:val="VT0(15):26"/>
				<v:ud v:nameU="visMasterStencil" v:prompt="" v:val="VT4(Basic_M.vssx)"/>
			</v:userDefs>
			<v:textBlock v:margins="rect(4,4,4,4)" v:tabSpace="42.5197"/>
			<v:textRect cx="32.5579" cy="189.135" width="56.98" height="30.527"/>
			<path d="M0 189.13 A32.5579 17.444 0 0 1 65.12 189.13 A32.5579 17.444 0 1 1 0 189.13 Z" class="st1"/>
			<text x="16.48" y="192.13" class="st2" v:langID="1031"><v:paragraph v:horizAlign="1"/><v:tabList/><tspan class="st3">Created</tspan></text>		</g>
		<g id="shape2-5" v:mID="2" v:groupContext="shape" transform="translate(18.25,-79.3039)">
			<title>Ellipse.2</title>
			<desc>Run</desc>
			<v:userDefs>
				<v:ud v:nameU="visVersion" v:val="VT0(15):26"/>
				<v:ud v:nameU="visMasterStencil" v:prompt="" v:val="VT4(Basic_M.vssx)"/>
			</v:userDefs>
			<v:textBlock v:margins="rect(4,4,4,4)" v:tabSpace="42.5197"/>
			<v:textRect cx="32.5579" cy="189.135" width="56.98" height="30.527"/>
			<path d="M0 189.13 A32.5579 17.444 0 0 1 65.12 189.13 A32.5579 17.444 0 1 1 0 189.13 Z" class="st1"/>
			<text x="24.59" y="192.13" class="st2" v:langID="1031"><v:paragraph v:horizAlign="1"/><v:tabList/>Run</text>		</g>
		<g id="shape3-8" v:mID="3" v:groupContext="shape" transform="translate(143.055,-92.3869)">
			<title>Ellipse.3</title>
			<desc>Canceld</desc>
			<v:userDefs>
				<v:ud v:nameU="visVersion" v:val="VT0(15):26"/>
				<v:ud v:nameU="visMasterStencil" v:prompt="" v:val="VT4(Basic_M.vssx)"/>
			</v:userDefs>
			<v:textBlock v:margins="rect(4,4,4,4)" v:tabSpace="42.5197"/>
			<v:textRect cx="32.5579" cy="189.135" width="56.98" height="30.527"/>
			<path d="M0 189.13 A32.5579 17.444 0 0 1 65.12 189.13 A32.5579 17.444 0 1 1 0 189.13 Z" class="st1"/>
			<text x="16.49" y="192.13" class="st2" v:langID="1031"><v:paragraph v:horizAlign="1"/><v:tabList/>Canceld</text>		</g>
		<g id="shape4-11" v:mID="4" v:groupContext="shape" transform="translate(91.5053,-18.25)">
			<title>Ellipse.4</title>
			<desc>Finish</desc>
			<v:userDefs>
				<v:ud v:nameU="visVersion" v:val="VT0(15):26"/>
				<v:ud v:nameU="visMasterStencil" v:prompt="" v:val="VT4(Basic_M.vssx)"/>
			</v:userDefs>
			<v:textBlock v:margins="rect(4,4,4,4)" v:tabSpace="42.5197"/>
			<v:textRect cx="32.5579" cy="189.135" width="56.98" height="30.527"/>
			<path d="M0 189.13 A32.5579 17.444 0 0 1 65.12 189.13 A32.5579 17.444 0 1 1 0 189.13 Z" class="st1"/>
			<text x="20.76" y="192.13" class="st2" v:langID="1031"><v:paragraph v:horizAlign="1"/><v:tabList/><tspan class="st3">Finish</tspan></text>		</g>
		<g id="shape5-15" v:mID="5" v:groupContext="shape" v:layerMember="0" transform="translate(88.7922,-153.441)">
			<title>Dynamischer Verbinder</title>
			<path d="M0 206.58 C-0 216.62 -32.42 217.39 -37.36 239.82 L-37.39 240.18" class="st4"/>
		</g>
		<g id="shape7-21" v:mID="7" v:groupContext="shape" v:layerMember="0" transform="translate(50.8079,-79.3039)">
			<title>Dynamischer Verbinder.7</title>
			<path d="M0 206.58 C0 217.48 -0 233.99 7.78 242.17 C14.01 248.71 25.22 249.92 34.66 250.14 L35.02 250.14" class="st4"/>
		</g>
		<g id="shape8-26" v:mID="8" v:groupContext="shape" v:layerMember="0" transform="translate(83.3659,-96.2028)">
			<title>Dynamischer Verbinder.8</title>
			<path d="M0 206.03 C10.4 206.03 10.85 194.05 53.65 193.02 L54.01 193.02" class="st4"/>
		</g>
	</g>
</svg>
