<?xml version="1.0" encoding="UTF-8" standalone="no"?>
<!DOCTYPE svg PUBLIC "-//W3C//DTD SVG 1.1//EN" "http://www.w3.org/Graphics/SVG/1.1/DTD/svg11.dtd">
<!-- Generiert durch Microsoft Visio, SVG Export webexpress.svg template -->
<svg xmlns="http://www.w3.org/2000/svg" xmlns:xlink="http://www.w3.org/1999/xlink" xmlns:ev="http://www.w3.org/2001/xml-events"
		xmlns:v="http://schemas.microsoft.com/visio/2003/SVGExtensions/" width="3.93701in" height="3.93701in"
		viewBox="0 0 283.465 283.465" xml:space="preserve" color-interpolation-filters="sRGB" class="st3">
	<v:documentProperties v:langID="1031"/>

	<style type="text/css">
	<![CDATA[
		.st1 {fill:#007f46;stroke:none;stroke-linecap:round;stroke-linejoin:round;stroke-width:0.749998}
		.st2 {fill:#ffffff;stroke:#ffffff;stroke-linecap:round;stroke-linejoin:round;stroke-width:0.24}
		.st3 {fill:none;fill-rule:evenodd;font-size:12px;overflow:visible;stroke-linecap:square;stroke-miterlimit:3}
	]]>
	</style>

	<g v:mID="0" v:index="1" v:groupContext="foregroundPage">
		<title>template</title>
		<v:pageProperties v:drawingScale="1" v:pageScale="1" v:drawingUnits="19" v:shadowOffsetX="8.99998"
				v:shadowOffsetY="-8.99998"/>
		<g id="shape1-1" v:mID="1" v:groupContext="shape" transform="translate(0.000280035,-0.0004331)">
			<title>Tabelle.2</title>
			<rect x="0" y="-0.035" width="283.5" height="283.5" class="st1"/>
		</g>
		<g id="shape35-3" v:mID="35" v:groupContext="shape" transform="translate(71.334,-70.9895)">
			<title>Tabelle.35</title>
			<path d="M46.52 274.26 L53.16 238.44 A6.54317 6.54317 -180 0 0 45.39 230.84 L9.72 238.23 A6.54317 6.54317 -180 0 0 6.47
						 249.31 L35.51 277.75 A6.54317 6.54317 -180 0 0 46.52 274.26 ZM119.77 183.89 A20.0385 20.0385 0 1 1 79.7
						 183.89 A20.0385 20.0385 0 1 1 119.77 183.89 ZM89.31 183.89 A10.4282 10.4282 0 1 0 110.16 183.89 A10.4282
						 10.4282 0 1 0 89.31 183.89 ZM63.26 265.01 L81.83 283.14 A1.125 1.125 -180 0 0 83.4 283.14 A57.2 57.2 -180
						 0 0 85.32 281.17 A4.5 4.5 0 0 1 85.57 280.92 A48.564 48.564 -45 0 0 99.9 233.73 A4.5 4.5 0 0 1 99.82 233.37
						 A57.2 57.2 -7.28 0 0 99.77 233.06 A2.25 2.25 0 0 1 100.81 230.78 A84.2672 84.2672 -180 0 0 121.02 213.35
						 A84.2672 84.2672 -180 0 0 139.64 144.92 A1.125 1.125 -180 0 0 139.32 144.31 L139.13 144.12 A1.125 1.125
						 -180 0 0 138.59 143.82 A75.5514 75.5514 -82.22 0 0 70.2 162.37 A4.5 4.5 0 0 1 70.03 162.52 A84.2672 84.2672
						 -180 0 0 52.29 183.29 A1.125 1.125 0 0 1 51.13 183.82 A57.2 57.2 -82.14 0 0 50.1 183.64 A4.5 4.5 0 0 1 49.74
						 183.57 A48.564 48.564 -180 0 0 2.55 197.89 A4.5 4.5 0 0 1 2.29 198.15 A57.2 57.2 -180 0 0 0.32 200.06 A1.125
						 1.125 -180 0 0 0.32 201.64 L18.67 220.43 A31.5 31.5969 0 1 1 63.26 265.01 Z" class="st2"/>
		</g>
	</g>
</svg>
